<svg width="92" height="86" viewBox="0 0 92 86" fill="none" xmlns="http://www.w3.org/2000/svg">
<path d="M71.5277 54.3537C73.4429 49.1766 78.8839 46.4127 83.6727 48.1843L85.0605 44.4328C90.6119 29.4267 88.5296 24.3914 74.649 19.2564L39.9474 6.41879C26.0668 1.28376 21.2088 3.75152 15.6574 18.7576L14.9635 20.6333C19.7523 22.4049 22.0845 28.0444 20.1693 33.2215C18.2541 38.3986 12.8131 41.1625 8.02429 39.3909L7.33037 41.2667C1.77898 56.2728 3.86129 61.308 17.7419 66.4431L52.4434 79.2807C66.324 84.4157 71.182 81.9479 76.7334 66.9419C71.9446 65.1703 69.6124 59.5308 71.5277 54.3537Z" stroke="#C20E0E" stroke-width="3" stroke-linecap="round" stroke-linejoin="round"/>
<path opacity="0.4" d="M31.9683 49.3153L61.1163 34.5087" stroke="#FF7070" stroke-width="3" stroke-linecap="round" stroke-linejoin="round"/>
<path opacity="0.4" d="M52.77 57.0107L52.802 57.0226" stroke="#FF7070" stroke-width="8.5" stroke-linecap="round" stroke-linejoin="round"/>
<path opacity="0.4" d="M39.583 28.6748L39.6149 28.6866" stroke="#FF7070" stroke-width="8.5" stroke-linecap="round" stroke-linejoin="round"/>
</svg>
