<svg width="59" height="59" viewBox="0 0 59 59" fill="none" xmlns="http://www.w3.org/2000/svg">
<path d="M39.8343 51.0907C38.0586 51.0775 36.2906 50.8546 34.5672 50.4266C28.6156 48.9907 22.4869 45.348 17.3129 40.1694C12.1389 34.9909 8.49167 28.8611 7.0557 22.9152C5.54369 16.6605 6.62208 11.3094 10.0888 7.84264L11.0787 6.85279C11.9768 5.9565 13.1937 5.45312 14.4626 5.45312C15.7314 5.45312 16.9484 5.9565 17.8464 6.85279L23.5347 12.5399C24.4315 13.4377 24.9353 14.6548 24.9353 15.9238C24.9353 17.1928 24.4315 18.4099 23.5347 19.3077L20.1746 22.6666C21.7854 25.4931 23.9762 28.3219 26.5655 30.9112C29.1548 33.5004 31.9859 35.6924 34.8113 37.3032L38.1702 33.9431C38.6145 33.4987 39.142 33.1461 39.7226 32.9055C40.3032 32.6649 40.9256 32.5411 41.554 32.5411C42.1825 32.5411 42.8048 32.6649 43.3854 32.9055C43.9661 33.1461 44.4936 33.4987 44.9379 33.9431L50.625 39.6302C51.5221 40.5277 52.026 41.7446 52.026 43.0135C52.026 44.2825 51.5221 45.4994 50.625 46.3969L49.634 47.3867C47.1901 49.8352 43.8073 51.0907 39.8343 51.0907ZM14.4626 8.85633C14.2813 8.85543 14.1017 8.89071 13.9343 8.9601C13.7668 9.02949 13.6149 9.1316 13.4875 9.26044L12.4965 10.2503C9.90039 12.8464 9.14211 17.0612 10.3613 22.1115C11.6519 27.4614 14.9745 33.0203 19.716 37.7606C24.4575 42.501 30.0152 45.8202 35.3663 47.1154C40.4178 48.3346 44.6303 47.5763 47.2264 44.9802L48.2162 43.9903C48.4749 43.7315 48.6201 43.3806 48.6201 43.0147C48.6201 42.6488 48.4749 42.2979 48.2162 42.039L42.5303 36.3519C42.2714 36.0933 41.9205 35.948 41.5546 35.948C41.1887 35.948 40.8378 36.0933 40.5789 36.3519L36.321 40.6099C36.0655 40.8655 35.7353 41.0332 35.3782 41.0887C35.021 41.1442 34.6555 41.0847 34.3345 40.9186C30.8439 39.1137 27.3249 36.4859 24.1579 33.3188C20.9908 30.1517 18.3686 26.635 16.5592 23.1445C16.393 22.8235 16.3333 22.4581 16.3886 22.101C16.4439 21.7438 16.6114 21.4136 16.8668 21.1579L21.1259 16.9C21.3845 16.6412 21.5298 16.2902 21.5298 15.9243C21.5298 15.5584 21.3845 15.2075 21.1259 14.9487L15.4388 9.26044C15.3109 9.13182 15.1588 9.02987 14.9912 8.9605C14.8236 8.89113 14.6439 8.85572 14.4626 8.85633Z" fill="#C20E0E"/>
<path d="M41.6523 30.6203C41.2007 30.6203 40.7676 30.4409 40.4483 30.1216C40.1289 29.8023 39.9496 29.3692 39.9496 28.9176C39.9462 25.9305 38.7582 23.0666 36.6461 20.9543C34.534 18.842 31.6703 17.6537 28.6832 17.6501C28.2316 17.6501 27.7985 17.4707 27.4792 17.1514C27.1599 16.832 26.9805 16.3989 26.9805 15.9474C26.9805 15.4958 27.1599 15.0627 27.4792 14.7433C27.7985 14.424 28.2316 14.2446 28.6832 14.2446C36.7734 14.2446 43.355 20.8285 43.355 28.9176C43.355 29.3692 43.1756 29.8023 42.8563 30.1216C42.537 30.4409 42.1039 30.6203 41.6523 30.6203Z" fill="#C20E0E"/>
<path d="M48.8491 30.6204C48.3975 30.6204 47.9644 30.441 47.6451 30.1217C47.3258 29.8023 47.1464 29.3692 47.1464 28.9176C47.1464 18.7365 38.8598 10.4533 28.6832 10.4533C28.2316 10.4533 27.7985 10.2739 27.4792 9.95458C27.1599 9.63526 26.9805 9.20217 26.9805 8.75058C26.9805 8.29899 27.1599 7.86589 27.4792 7.54657C27.7985 7.22725 28.2316 7.04785 28.6832 7.04785C40.7419 7.04785 50.5519 16.8589 50.5519 28.9176C50.5519 29.3692 50.3725 29.8023 50.0531 30.1217C49.7338 30.441 49.3007 30.6204 48.8491 30.6204Z" fill="#C20E0E"/>
</svg>
