<svg width="30" height="25" viewBox="0 0 30 25" fill="none" xmlns="http://www.w3.org/2000/svg">
<g id="Vector">
<path d="M4.875 0.610352H25.125C27.7245 0.610352 29.8488 2.64503 29.9923 5.20872L30 5.48535V19.7353C30 22.3349 27.9653 24.4591 25.4016 24.6027L25.125 24.6103H4.875C2.27545 24.6103 0.151125 22.5756 0.0077101 20.012L0 19.7353V5.48535C0 2.88581 2.03467 0.761476 4.59837 0.618061L4.875 0.610352ZM27.75 8.66985L15.524 15.1059C15.2429 15.2538 14.9147 15.275 14.6202 15.1694L14.476 15.1059L2.25 8.67135V19.7353C2.25 21.1126 3.31067 22.2421 4.65971 22.3517L4.875 22.3603H25.125C26.5023 22.3603 27.6318 21.2997 27.7413 19.9506L27.75 19.7353V8.66985ZM25.125 2.86035H4.875C3.49775 2.86035 2.36822 3.92102 2.2587 5.27006L2.25 5.48535V6.12885L15 12.8391L27.75 6.12735V5.48535C27.75 4.1081 26.6893 2.97857 25.3402 2.86905L25.125 2.86035Z" fill="#333333"/>
<path d="M4.875 0.610352H25.125C27.7245 0.610352 29.8488 2.64503 29.9923 5.20872L30 5.48535V19.7353C30 22.3349 27.9653 24.4591 25.4016 24.6027L25.125 24.6103H4.875C2.27545 24.6103 0.151125 22.5756 0.0077101 20.012L0 19.7353V5.48535C0 2.88581 2.03467 0.761476 4.59837 0.618061L4.875 0.610352ZM27.75 8.66985L15.524 15.1059C15.2429 15.2538 14.9147 15.275 14.6202 15.1694L14.476 15.1059L2.25 8.67135V19.7353C2.25 21.1126 3.31067 22.2421 4.65971 22.3517L4.875 22.3603H25.125C26.5023 22.3603 27.6318 21.2997 27.7413 19.9506L27.75 19.7353V8.66985ZM25.125 2.86035H4.875C3.49775 2.86035 2.36822 3.92102 2.2587 5.27006L2.25 5.48535V6.12885L15 12.8391L27.75 6.12735V5.48535C27.75 4.1081 26.6893 2.97857 25.3402 2.86905L25.125 2.86035Z" fill="black" fill-opacity="0.2"/>
<path d="M4.875 0.610352H25.125C27.7245 0.610352 29.8488 2.64503 29.9923 5.20872L30 5.48535V19.7353C30 22.3349 27.9653 24.4591 25.4016 24.6027L25.125 24.6103H4.875C2.27545 24.6103 0.151125 22.5756 0.0077101 20.012L0 19.7353V5.48535C0 2.88581 2.03467 0.761476 4.59837 0.618061L4.875 0.610352ZM27.75 8.66985L15.524 15.1059C15.2429 15.2538 14.9147 15.275 14.6202 15.1694L14.476 15.1059L2.25 8.67135V19.7353C2.25 21.1126 3.31067 22.2421 4.65971 22.3517L4.875 22.3603H25.125C26.5023 22.3603 27.6318 21.2997 27.7413 19.9506L27.75 19.7353V8.66985ZM25.125 2.86035H4.875C3.49775 2.86035 2.36822 3.92102 2.2587 5.27006L2.25 5.48535V6.12885L15 12.8391L27.75 6.12735V5.48535C27.75 4.1081 26.6893 2.97857 25.3402 2.86905L25.125 2.86035Z" fill="black" fill-opacity="0.2"/>
</g>
</svg>
