<svg width="30" height="36" viewBox="0 0 30 36" fill="none" xmlns="http://www.w3.org/2000/svg">
<g id="Vector">
<path d="M4.39339 5.29183C10.2512 -0.566026 19.7488 -0.566026 25.6066 5.29183C31.4645 11.1497 31.4645 20.6472 25.6066 26.5051L23.5618 28.5273C22.0546 30.0064 20.0992 31.9083 17.6945 34.2331C16.1919 35.686 13.8081 35.6858 12.3057 34.2327L6.29157 28.3826C5.53573 27.6405 4.90303 27.0146 4.39339 26.5051C-1.46446 20.6472 -1.46446 11.1497 4.39339 5.29183ZM23.7794 7.11902C18.9307 2.27028 11.0693 2.27028 6.22058 7.11902C1.37184 11.9677 1.37184 19.8291 6.22058 24.6778L8.78234 27.2059C10.1931 28.5864 11.9665 30.3098 14.1021 32.3753C14.6029 32.8596 15.3974 32.8597 15.8984 32.3755L21.7468 26.688C22.5545 25.8951 23.2322 25.2249 23.7794 24.6778C28.6281 19.8291 28.6281 11.9677 23.7794 7.11902ZM15 11.2018C17.8557 11.2018 20.1707 13.5168 20.1707 16.3725C20.1707 19.2282 17.8557 21.5432 15 21.5432C12.1443 21.5432 9.82924 19.2282 9.82924 16.3725C9.82924 13.5168 12.1443 11.2018 15 11.2018ZM15 13.7858C13.5714 13.7858 12.4132 14.9439 12.4132 16.3725C12.4132 17.8012 13.5714 18.9592 15 18.9592C16.4286 18.9592 17.5866 17.8012 17.5866 16.3725C17.5866 14.9439 16.4286 13.7858 15 13.7858Z" fill="#333333"/>
<path d="M4.39339 5.29183C10.2512 -0.566026 19.7488 -0.566026 25.6066 5.29183C31.4645 11.1497 31.4645 20.6472 25.6066 26.5051L23.5618 28.5273C22.0546 30.0064 20.0992 31.9083 17.6945 34.2331C16.1919 35.686 13.8081 35.6858 12.3057 34.2327L6.29157 28.3826C5.53573 27.6405 4.90303 27.0146 4.39339 26.5051C-1.46446 20.6472 -1.46446 11.1497 4.39339 5.29183ZM23.7794 7.11902C18.9307 2.27028 11.0693 2.27028 6.22058 7.11902C1.37184 11.9677 1.37184 19.8291 6.22058 24.6778L8.78234 27.2059C10.1931 28.5864 11.9665 30.3098 14.1021 32.3753C14.6029 32.8596 15.3974 32.8597 15.8984 32.3755L21.7468 26.688C22.5545 25.8951 23.2322 25.2249 23.7794 24.6778C28.6281 19.8291 28.6281 11.9677 23.7794 7.11902ZM15 11.2018C17.8557 11.2018 20.1707 13.5168 20.1707 16.3725C20.1707 19.2282 17.8557 21.5432 15 21.5432C12.1443 21.5432 9.82924 19.2282 9.82924 16.3725C9.82924 13.5168 12.1443 11.2018 15 11.2018ZM15 13.7858C13.5714 13.7858 12.4132 14.9439 12.4132 16.3725C12.4132 17.8012 13.5714 18.9592 15 18.9592C16.4286 18.9592 17.5866 17.8012 17.5866 16.3725C17.5866 14.9439 16.4286 13.7858 15 13.7858Z" fill="black" fill-opacity="0.2"/>
<path d="M4.39339 5.29183C10.2512 -0.566026 19.7488 -0.566026 25.6066 5.29183C31.4645 11.1497 31.4645 20.6472 25.6066 26.5051L23.5618 28.5273C22.0546 30.0064 20.0992 31.9083 17.6945 34.2331C16.1919 35.686 13.8081 35.6858 12.3057 34.2327L6.29157 28.3826C5.53573 27.6405 4.90303 27.0146 4.39339 26.5051C-1.46446 20.6472 -1.46446 11.1497 4.39339 5.29183ZM23.7794 7.11902C18.9307 2.27028 11.0693 2.27028 6.22058 7.11902C1.37184 11.9677 1.37184 19.8291 6.22058 24.6778L8.78234 27.2059C10.1931 28.5864 11.9665 30.3098 14.1021 32.3753C14.6029 32.8596 15.3974 32.8597 15.8984 32.3755L21.7468 26.688C22.5545 25.8951 23.2322 25.2249 23.7794 24.6778C28.6281 19.8291 28.6281 11.9677 23.7794 7.11902ZM15 11.2018C17.8557 11.2018 20.1707 13.5168 20.1707 16.3725C20.1707 19.2282 17.8557 21.5432 15 21.5432C12.1443 21.5432 9.82924 19.2282 9.82924 16.3725C9.82924 13.5168 12.1443 11.2018 15 11.2018ZM15 13.7858C13.5714 13.7858 12.4132 14.9439 12.4132 16.3725C12.4132 17.8012 13.5714 18.9592 15 18.9592C16.4286 18.9592 17.5866 17.8012 17.5866 16.3725C17.5866 14.9439 16.4286 13.7858 15 13.7858Z" fill="black" fill-opacity="0.2"/>
</g>
</svg>
