<svg width="20" height="20" viewBox="0 0 20 20" fill="none" xmlns="http://www.w3.org/2000/svg">
<g id="Person / undefined / Glyph: undefined">
<path id="Vector" d="M14.7957 11.667C15.8308 11.667 16.6698 12.506 16.6698 13.5411V14.0206C16.6698 14.7658 16.4035 15.4865 15.9189 16.0527C14.6111 17.5806 12.6217 18.3346 10.0007 18.3346C7.37907 18.3346 5.39073 17.5803 4.08548 16.0517C3.60234 15.486 3.33691 14.7664 3.33691 14.0224V13.5411C3.33691 12.506 4.17596 11.667 5.21097 11.667H14.7957ZM14.7957 12.917H5.21097C4.86631 12.917 4.58691 13.1964 4.58691 13.5411V14.0224C4.58691 14.4688 4.74617 14.9006 5.03605 15.24C6.08047 16.4631 7.71871 17.0846 10.0007 17.0846C12.2826 17.0846 13.9222 16.4631 14.9692 15.2398C15.2601 14.9001 15.4198 14.4677 15.4198 14.0206V13.5411C15.4198 13.1964 15.1404 12.917 14.7957 12.917ZM10.0007 1.6709C12.3018 1.6709 14.1673 3.53638 14.1673 5.83756C14.1673 8.13876 12.3018 10.0042 10.0007 10.0042C7.69944 10.0042 5.83396 8.13876 5.83396 5.83756C5.83396 3.53638 7.69944 1.6709 10.0007 1.6709ZM10.0007 2.9209C8.38982 2.9209 7.08396 4.22674 7.08396 5.83756C7.08396 7.4484 8.38982 8.75425 10.0007 8.75425C11.6115 8.75425 12.9173 7.4484 12.9173 5.83756C12.9173 4.22674 11.6115 2.9209 10.0007 2.9209Z" fill="#DCDCE4"/>
</g>
</svg>
