<svg width="30" height="31" viewBox="0 0 30 31" fill="none" xmlns="http://www.w3.org/2000/svg">
<g id="Vector">
<path d="M8.45265 0.261745C6.4954 -0.234078 4.44843 -0.0231637 2.84349 0.87481C1.20991 1.7888 0.0630981 3.40742 0.00652606 5.57618C-0.0818091 8.96174 0.702889 13.5054 3.81544 18.8412C6.88806 24.1084 10.2811 27.2656 13.0952 29.1428C14.8732 30.3289 16.8386 30.3601 18.517 29.5867C20.1692 28.8253 21.5119 27.3058 22.2092 25.4207C22.5601 24.4717 22.4774 23.4168 21.9831 22.5342L20.191 19.334C19.0515 17.2989 16.5912 16.4079 14.4128 17.2412L13.1616 17.7197C12.5554 17.9516 11.9977 17.8449 11.6808 17.5337C10.6185 16.4902 9.85967 15.0735 9.51539 13.5473C9.40714 13.0674 9.62705 12.4999 10.1584 12.0989L11.2882 11.2463C13.1774 9.82053 13.7113 7.21203 12.534 5.15869L10.7074 1.97284C10.2187 1.12051 9.40505 0.503013 8.45265 0.261745ZM1.88536 5.62519C1.92327 4.17223 2.65842 3.132 3.76118 2.51501C4.89259 1.88198 6.43633 1.68979 7.9911 2.08367C8.44975 2.19986 8.8416 2.49721 9.07693 2.90767L10.9035 6.09352C11.6099 7.32553 11.2896 8.89062 10.156 9.74608L9.0262 10.5987C8.05038 11.3351 7.37477 12.5989 7.68199 13.9609C8.09865 15.8079 9.02182 17.5564 10.3639 18.8745C11.3438 19.8369 12.7417 19.8928 13.8331 19.4751L15.0843 18.9966C16.3915 18.4967 17.8674 19.0312 18.5512 20.2523L20.3432 23.4525C20.5688 23.8549 20.6064 24.336 20.4464 24.7687C19.901 26.2433 18.8782 27.3509 17.7304 27.8798C16.6091 28.3964 15.3403 28.3812 14.1382 27.5792C11.5619 25.8607 8.36737 22.9144 5.43889 17.8941C2.50051 12.857 1.80623 8.65772 1.88536 5.62519ZM20.1192 0.161024C19.6655 -0.0910315 19.0934 0.0724263 18.8413 0.526112C18.5893 0.979816 18.7528 1.55193 19.2065 1.80396L19.9281 2.20489C24.5046 4.74742 27.545 9.37098 28.066 14.5804L28.1252 15.1721C28.1767 15.6884 28.6373 16.0652 29.1536 16.0135C29.6701 15.962 30.0469 15.5014 29.9953 14.985L29.9361 14.3934C29.3538 8.57109 25.9559 3.40358 20.8409 0.561934L20.1192 0.161024ZM17.9174 5.19771C18.1845 4.75267 18.7617 4.60836 19.2067 4.87538L19.44 5.01534C22.5091 6.85692 24.6164 9.9519 25.2049 13.4826L25.2885 13.9843C25.3738 14.4963 25.028 14.9804 24.516 15.0658C24.0041 15.151 23.5199 14.8052 23.4346 14.2933L23.351 13.7916C22.8531 10.8041 21.07 8.18524 18.473 6.62699L18.2397 6.48702C17.7947 6.21999 17.6503 5.64275 17.9174 5.19771Z" fill="#333333"/>
<path d="M8.45265 0.261745C6.4954 -0.234078 4.44843 -0.0231637 2.84349 0.87481C1.20991 1.7888 0.0630981 3.40742 0.00652606 5.57618C-0.0818091 8.96174 0.702889 13.5054 3.81544 18.8412C6.88806 24.1084 10.2811 27.2656 13.0952 29.1428C14.8732 30.3289 16.8386 30.3601 18.517 29.5867C20.1692 28.8253 21.5119 27.3058 22.2092 25.4207C22.5601 24.4717 22.4774 23.4168 21.9831 22.5342L20.191 19.334C19.0515 17.2989 16.5912 16.4079 14.4128 17.2412L13.1616 17.7197C12.5554 17.9516 11.9977 17.8449 11.6808 17.5337C10.6185 16.4902 9.85967 15.0735 9.51539 13.5473C9.40714 13.0674 9.62705 12.4999 10.1584 12.0989L11.2882 11.2463C13.1774 9.82053 13.7113 7.21203 12.534 5.15869L10.7074 1.97284C10.2187 1.12051 9.40505 0.503013 8.45265 0.261745ZM1.88536 5.62519C1.92327 4.17223 2.65842 3.132 3.76118 2.51501C4.89259 1.88198 6.43633 1.68979 7.9911 2.08367C8.44975 2.19986 8.8416 2.49721 9.07693 2.90767L10.9035 6.09352C11.6099 7.32553 11.2896 8.89062 10.156 9.74608L9.0262 10.5987C8.05038 11.3351 7.37477 12.5989 7.68199 13.9609C8.09865 15.8079 9.02182 17.5564 10.3639 18.8745C11.3438 19.8369 12.7417 19.8928 13.8331 19.4751L15.0843 18.9966C16.3915 18.4967 17.8674 19.0312 18.5512 20.2523L20.3432 23.4525C20.5688 23.8549 20.6064 24.336 20.4464 24.7687C19.901 26.2433 18.8782 27.3509 17.7304 27.8798C16.6091 28.3964 15.3403 28.3812 14.1382 27.5792C11.5619 25.8607 8.36737 22.9144 5.43889 17.8941C2.50051 12.857 1.80623 8.65772 1.88536 5.62519ZM20.1192 0.161024C19.6655 -0.0910315 19.0934 0.0724263 18.8413 0.526112C18.5893 0.979816 18.7528 1.55193 19.2065 1.80396L19.9281 2.20489C24.5046 4.74742 27.545 9.37098 28.066 14.5804L28.1252 15.1721C28.1767 15.6884 28.6373 16.0652 29.1536 16.0135C29.6701 15.962 30.0469 15.5014 29.9953 14.985L29.9361 14.3934C29.3538 8.57109 25.9559 3.40358 20.8409 0.561934L20.1192 0.161024ZM17.9174 5.19771C18.1845 4.75267 18.7617 4.60836 19.2067 4.87538L19.44 5.01534C22.5091 6.85692 24.6164 9.9519 25.2049 13.4826L25.2885 13.9843C25.3738 14.4963 25.028 14.9804 24.516 15.0658C24.0041 15.151 23.5199 14.8052 23.4346 14.2933L23.351 13.7916C22.8531 10.8041 21.07 8.18524 18.473 6.62699L18.2397 6.48702C17.7947 6.21999 17.6503 5.64275 17.9174 5.19771Z" fill="black" fill-opacity="0.2"/>
<path d="M8.45265 0.261745C6.4954 -0.234078 4.44843 -0.0231637 2.84349 0.87481C1.20991 1.7888 0.0630981 3.40742 0.00652606 5.57618C-0.0818091 8.96174 0.702889 13.5054 3.81544 18.8412C6.88806 24.1084 10.2811 27.2656 13.0952 29.1428C14.8732 30.3289 16.8386 30.3601 18.517 29.5867C20.1692 28.8253 21.5119 27.3058 22.2092 25.4207C22.5601 24.4717 22.4774 23.4168 21.9831 22.5342L20.191 19.334C19.0515 17.2989 16.5912 16.4079 14.4128 17.2412L13.1616 17.7197C12.5554 17.9516 11.9977 17.8449 11.6808 17.5337C10.6185 16.4902 9.85967 15.0735 9.51539 13.5473C9.40714 13.0674 9.62705 12.4999 10.1584 12.0989L11.2882 11.2463C13.1774 9.82053 13.7113 7.21203 12.534 5.15869L10.7074 1.97284C10.2187 1.12051 9.40505 0.503013 8.45265 0.261745ZM1.88536 5.62519C1.92327 4.17223 2.65842 3.132 3.76118 2.51501C4.89259 1.88198 6.43633 1.68979 7.9911 2.08367C8.44975 2.19986 8.8416 2.49721 9.07693 2.90767L10.9035 6.09352C11.6099 7.32553 11.2896 8.89062 10.156 9.74608L9.0262 10.5987C8.05038 11.3351 7.37477 12.5989 7.68199 13.9609C8.09865 15.8079 9.02182 17.5564 10.3639 18.8745C11.3438 19.8369 12.7417 19.8928 13.8331 19.4751L15.0843 18.9966C16.3915 18.4967 17.8674 19.0312 18.5512 20.2523L20.3432 23.4525C20.5688 23.8549 20.6064 24.336 20.4464 24.7687C19.901 26.2433 18.8782 27.3509 17.7304 27.8798C16.6091 28.3964 15.3403 28.3812 14.1382 27.5792C11.5619 25.8607 8.36737 22.9144 5.43889 17.8941C2.50051 12.857 1.80623 8.65772 1.88536 5.62519ZM20.1192 0.161024C19.6655 -0.0910315 19.0934 0.0724263 18.8413 0.526112C18.5893 0.979816 18.7528 1.55193 19.2065 1.80396L19.9281 2.20489C24.5046 4.74742 27.545 9.37098 28.066 14.5804L28.1252 15.1721C28.1767 15.6884 28.6373 16.0652 29.1536 16.0135C29.6701 15.962 30.0469 15.5014 29.9953 14.985L29.9361 14.3934C29.3538 8.57109 25.9559 3.40358 20.8409 0.561934L20.1192 0.161024ZM17.9174 5.19771C18.1845 4.75267 18.7617 4.60836 19.2067 4.87538L19.44 5.01534C22.5091 6.85692 24.6164 9.9519 25.2049 13.4826L25.2885 13.9843C25.3738 14.4963 25.028 14.9804 24.516 15.0658C24.0041 15.151 23.5199 14.8052 23.4346 14.2933L23.351 13.7916C22.8531 10.8041 21.07 8.18524 18.473 6.62699L18.2397 6.48702C17.7947 6.21999 17.6503 5.64275 17.9174 5.19771Z" fill="black" fill-opacity="0.2"/>
</g>
</svg>
