<svg width="50" height="51" viewBox="0 0 50 51" fill="none" xmlns="http://www.w3.org/2000/svg">
<path d="M41.6667 7.21094H8.33333C3.75 7.21094 0 10.9609 0 15.5443V36.3776C0 40.9609 3.75 44.7109 8.33333 44.7109H41.6667C46.25 44.7109 50 40.9609 50 36.3776V15.5443C50 10.9609 46.25 7.21094 41.6667 7.21094ZM45 19.2943L28.5417 30.3359C27.5 30.9609 26.25 31.3776 25 31.3776C23.75 31.3776 22.5 30.9609 21.4583 30.3359L5 19.2943C4.16667 18.6693 3.95833 17.4193 4.58333 16.3776C5.20833 15.5443 6.45833 15.3359 7.5 15.9609L23.9583 27.0026C24.5833 27.4193 25.625 27.4193 26.25 27.0026L42.7083 15.9609C43.75 15.3359 45 15.5443 45.625 16.5859C46.0417 17.4193 45.8333 18.6693 45 19.2943Z" fill="#C20E0E"/>
</svg>
