<svg width="51" height="51" viewBox="0 0 51 51" fill="none" xmlns="http://www.w3.org/2000/svg">
<path d="M34.7099 44.7957C33.1529 44.7842 31.6027 44.5887 30.0916 44.2135C24.8731 42.9544 19.4992 39.7603 14.9625 35.2196C10.4258 30.6789 7.22776 25.3041 5.96866 20.0905C4.64288 14.6063 5.58845 9.91425 8.6282 6.8745L9.49613 6.00657C10.2836 5.22067 11.3507 4.7793 12.4632 4.7793C13.5758 4.7793 14.6428 5.22067 15.4303 6.00657L20.4179 10.9932C21.2043 11.7804 21.646 12.8476 21.646 13.9603C21.646 15.073 21.2043 16.1402 20.4179 16.9274L17.4717 19.8726C18.8841 22.351 20.8051 24.8313 23.0755 27.1017C25.3458 29.372 27.8282 31.294 30.3056 32.7064L33.2508 29.7602C33.6404 29.3705 34.1029 29.0613 34.612 28.8504C35.1211 28.6395 35.6668 28.5309 36.2179 28.5309C36.7689 28.5309 37.3146 28.6395 37.8237 28.8504C38.3328 29.0613 38.7954 29.3705 39.185 29.7602L44.1716 34.7468C44.9582 35.5338 45.4 36.6008 45.4 37.7134C45.4 38.8261 44.9582 39.8931 44.1716 40.68L43.3027 41.548C41.1597 43.6949 38.1936 44.7957 34.7099 44.7957ZM12.4632 7.76333C12.3043 7.76254 12.1468 7.79348 12 7.85432C11.8532 7.91517 11.72 8.0047 11.6082 8.11767L10.7393 8.9856C8.46297 11.2619 7.79809 14.9576 8.86708 19.3858C9.99877 24.0769 12.9121 28.951 17.0696 33.1075C21.2271 37.264 26.1003 40.1744 30.7923 41.3101C35.2215 42.3791 38.9152 41.7142 41.1916 39.4379L42.0595 38.5699C42.2863 38.343 42.4136 38.0353 42.4136 37.7144C42.4136 37.3936 42.2863 37.0859 42.0595 36.8589L37.0739 31.8723C36.8469 31.6455 36.5392 31.5182 36.2184 31.5182C35.8975 31.5182 35.5898 31.6455 35.3629 31.8723L31.6294 35.6058C31.4054 35.83 31.1158 35.977 30.8027 36.0257C30.4895 36.0744 30.169 36.0221 29.8875 35.8766C26.8269 34.294 23.7414 31.9898 20.9644 29.2128C18.1874 26.4358 15.8882 23.3523 14.3016 20.2916C14.1559 20.0102 14.1035 19.6898 14.152 19.3766C14.2005 19.0635 14.3474 18.7739 14.5713 18.5498L18.3058 14.8163C18.5326 14.5893 18.66 14.2816 18.66 13.9608C18.66 13.6399 18.5326 13.3322 18.3058 13.1053L13.3192 8.11767C13.2071 8.00489 13.0737 7.9155 12.9267 7.85467C12.7798 7.79384 12.6223 7.7628 12.4632 7.76333Z" fill="#C20E0E"/>
<path d="M36.3041 26.847C35.9082 26.847 35.5284 26.6897 35.2484 26.4097C34.9684 26.1297 34.8111 25.7499 34.8111 25.354C34.8083 22.7348 33.7666 20.2237 31.9146 18.3715C30.0626 16.5194 27.5516 15.4774 24.9325 15.4743C24.5365 15.4743 24.1567 15.317 23.8767 15.037C23.5968 14.757 23.4395 14.3773 23.4395 13.9813C23.4395 13.5853 23.5968 13.2056 23.8767 12.9256C24.1567 12.6456 24.5365 12.4883 24.9325 12.4883C32.0262 12.4883 37.7972 18.2612 37.7972 25.354C37.7972 25.7499 37.6399 26.1297 37.3599 26.4097C37.0799 26.6897 36.7001 26.847 36.3041 26.847Z" fill="#C20E0E"/>
<path d="M42.6146 26.8468C42.2186 26.8468 41.8389 26.6896 41.5589 26.4096C41.2789 26.1296 41.1216 25.7498 41.1216 25.3538C41.1216 16.4267 33.8556 9.16374 24.9325 9.16374C24.5365 9.16374 24.1567 9.00644 23.8767 8.72645C23.5968 8.44646 23.4395 8.0667 23.4395 7.67074C23.4395 7.27477 23.5968 6.89502 23.8767 6.61502C24.1567 6.33503 24.5365 6.17773 24.9325 6.17773C35.5059 6.17773 44.1076 14.7804 44.1076 25.3538C44.1076 25.7498 43.9503 26.1296 43.6703 26.4096C43.3903 26.6896 43.0105 26.8468 42.6146 26.8468Z" fill="#C20E0E"/>
</svg>
