<svg width="25" height="25" viewBox="0 0 25 25" fill="none" xmlns="http://www.w3.org/2000/svg">
<path fill-rule="evenodd" clip-rule="evenodd" d="M20.3125 0H4.6875C2.09868 0 0 2.09868 0 4.6875V20.3125C0 22.9013 2.09868 25 4.6875 25H20.3125C22.9013 25 25 22.9013 25 20.3125V4.6875C25 2.09868 22.9013 0 20.3125 0ZM19.6776 13.4638H17.3388V22.1217H13.4309V13.4638H11.9145V10.5461H13.4309V8.6875C13.4309 6.25329 14.4441 4.80592 17.3125 4.80592H20.2204V7.71053H18.5296C17.4112 7.71053 17.3388 8.12829 17.3388 8.9046L17.3355 10.5428H19.9934L19.6743 13.4605L19.6776 13.4638Z" fill="white"/>
</svg>
