<svg width="18" height="19" viewBox="0 0 18 19" fill="none" xmlns="http://www.w3.org/2000/svg">
<path d="M10.3299 1.27781C9.56173 0.629727 8.43827 0.629727 7.6701 1.27781L1.48256 6.49781C1.01804 6.88969 0.75 7.46649 0.75 8.07424V16.6039C0.75 17.4899 1.46821 18.2081 2.35417 18.2081H5.10417C5.99013 18.2081 6.70833 17.4899 6.70833 16.6039V12.9349C6.70833 12.3122 7.20498 11.8056 7.82382 11.7894H10.1762C10.795 11.8056 11.2917 12.3122 11.2917 12.9349V16.6039C11.2917 17.4899 12.0099 18.2081 12.8958 18.2081H15.6458C16.5318 18.2081 17.25 17.4899 17.25 16.6039V8.07424C17.25 7.46649 16.982 6.88969 16.5174 6.49781L10.3299 1.27781Z" fill="#212121"/>
</svg>
