<svg width="18" height="19" viewBox="0 0 18 19" fill="none" xmlns="http://www.w3.org/2000/svg">
<path d="M10.3299 1.322C9.56173 0.673917 8.43827 0.673917 7.6701 1.322L1.48256 6.542C1.01804 6.93388 0.75 7.51068 0.75 8.11843V16.6481C0.75 17.5341 1.46821 18.2523 2.35417 18.2523H5.10417C5.99013 18.2523 6.70833 17.5341 6.70833 16.6481V12.9791C6.70833 12.3564 7.20498 11.8498 7.82382 11.8336H10.1762C10.795 11.8498 11.2917 12.3564 11.2917 12.9791V16.6481C11.2917 17.5341 12.0099 18.2523 12.8958 18.2523H15.6458C16.5318 18.2523 17.25 17.5341 17.25 16.6481V8.11843C17.25 7.51068 16.982 6.93388 16.5174 6.542L10.3299 1.322Z" fill="white"/>
</svg>
