<svg width="26" height="25" viewBox="0 0 26 25" fill="none" xmlns="http://www.w3.org/2000/svg">
<path fill-rule="evenodd" clip-rule="evenodd" d="M3.525 0H22.475C24.14 0 25.5 1.3625 25.5 3.025V21.8525C25.5 23.5175 24.1375 24.8775 22.475 24.8775H3.525C1.86 24.8775 0.5 23.515 0.5 21.8525V3.025C0.5 1.36 1.8625 0 3.525 0ZM3.2 10.2425H5.6975C5.4375 11 5.295 11.81 5.295 12.655C5.295 16.8225 8.745 20.2 13 20.2C17.255 20.2 20.705 16.8225 20.705 12.655C20.705 11.8125 20.5625 11 20.3025 10.2425H22.8V20.7175C22.8 21.46 22.1925 22.065 21.4525 22.065H4.445C3.76 22.065 3.2 21.505 3.2 20.82V10.2425ZM18.685 2.465H21.5875C22.2425 2.465 22.78 3.0025 22.78 3.6575V6.355C22.78 7.01 22.2425 7.5475 21.5875 7.5475H18.685C18.03 7.5475 17.4925 7.01 17.4925 6.355V3.6575C17.4925 3.0025 18.03 2.465 18.685 2.465ZM13.0075 7.34C15.77 7.34 18.01 9.535 18.01 12.24C18.01 14.945 15.77 17.14 13.0075 17.14C10.245 17.14 8.005 14.945 8.005 12.24C8.005 9.535 10.245 7.34 13.0075 7.34Z" fill="white"/>
</svg>
