<svg width="17" height="17" viewBox="0 0 17 17" fill="none" xmlns="http://www.w3.org/2000/svg">
<g clip-path="url(#clip0_158_4469)">
<path d="M5.0191 4.56345C5.0191 3.47072 5.9159 2.57391 7.00864 2.57391C7.84059 2.57391 8.55895 3.09376 8.85446 3.82413C9.26768 3.67507 9.71055 3.58718 10.1723 3.57129C9.74855 2.22754 8.48858 1.24756 7.00864 1.24756C5.18338 1.24756 3.69275 2.7382 3.69275 4.56345C3.69275 5.52221 4.10404 6.38866 4.75908 6.99522C2.58231 7.88756 1.04004 10.0323 1.04004 12.5217C1.04004 12.8879 1.33695 13.1849 1.70322 13.1849C2.06948 13.1849 2.36639 12.8879 2.36639 12.5217C2.36639 10.3106 3.936 8.44582 6.01519 7.98737C6.01431 7.95142 6.01387 7.91548 6.01387 7.87933C6.01387 7.36265 6.10395 6.8677 6.26932 6.40928C5.53895 6.11379 5.0191 5.3954 5.0191 4.56345Z" fill="#2A3653"/>
<path fill-rule="evenodd" clip-rule="evenodd" d="M7.00867 7.87936C7.00867 7.39327 7.10865 6.93445 7.28958 6.52193C7.61886 5.77111 8.21631 5.17368 8.9671 4.84439C9.37966 4.66346 9.83845 4.56348 10.3246 4.56348C12.1815 4.56348 13.6404 6.02247 13.6404 7.87936C13.6404 8.85244 13.2398 9.71623 12.5912 10.3181C14.759 11.2146 16.2932 13.3546 16.2932 15.8375C16.2932 16.2038 15.9962 16.5007 15.63 16.5007C15.2637 16.5007 14.9668 16.2038 14.9668 15.8375C14.9668 13.2858 12.8763 11.1953 10.3246 11.1953C7.77285 11.1953 5.68231 13.2858 5.68231 15.8375C5.68231 16.2038 5.38539 16.5007 5.01913 16.5007C4.65287 16.5007 4.35596 16.2038 4.35596 15.8375C4.35596 13.3546 5.89016 11.2146 8.05788 10.3181C7.40936 9.71623 7.0087 8.85238 7.00867 7.87936ZM10.3246 9.8689C11.3856 9.8689 12.3141 9.00677 12.3141 7.87936C12.3141 6.78058 11.4234 5.88983 10.3246 5.88983C10.1504 5.88983 9.9799 5.91305 9.81643 5.95685C9.75628 5.97295 9.69712 5.99184 9.63909 6.01339C9.10563 6.21145 8.668 6.63369 8.46209 7.17815C8.37999 7.39624 8.33502 7.63253 8.33502 7.87936C8.33502 8.97818 9.22574 9.8689 10.3246 9.8689Z" fill="#2A3653"/>
</g>
<defs>
<clipPath id="clip0_158_4469">
<rect width="15.9163" height="15.9163" fill="white" transform="translate(0.708496 0.916016)"/>
</clipPath>
</defs>
</svg>
