<svg width="25" height="26" viewBox="0 0 25 26" fill="none" xmlns="http://www.w3.org/2000/svg">
<path d="M12.5 23C15.1522 23 17.6957 21.9464 19.5711 20.0711C21.4464 18.1957 22.5 15.6522 22.5 13C22.5 10.3478 21.4464 7.8043 19.5711 5.92893C17.6957 4.05357 15.1522 3 12.5 3C9.84783 3 7.3043 4.05357 5.42893 5.92893C3.55357 7.8043 2.5 10.3478 2.5 13C2.5 15.6522 3.55357 18.1957 5.42893 20.0711C7.3043 21.9464 9.84783 23 12.5 23ZM12.5 25.5C5.59625 25.5 0 19.9037 0 13C0 6.09625 5.59625 0.5 12.5 0.5C19.4037 0.5 25 6.09625 25 13C25 19.9037 19.4037 25.5 12.5 25.5ZM8.6125 14.4625L5.49 13.4887C4.815 13.2825 4.81125 12.8175 5.64125 12.4837L17.8075 7.78375C18.5138 7.49625 18.9137 7.86 18.685 8.77125L16.6138 18.5462C16.4688 19.2425 16.05 19.4088 15.4688 19.0875L12.28 16.7275L10.7938 18.1625C10.6413 18.31 10.5175 18.4363 10.2825 18.4675C10.0487 18.5 9.85625 18.43 9.715 18.0425L8.6275 14.4538L8.6125 14.4625Z" fill="#C20E0E"/>
</svg>
