<svg width="17" height="17" viewBox="0 0 17 17" fill="none" xmlns="http://www.w3.org/2000/svg">
<g clip-path="url(#clip0_158_4451)">
<path d="M3.99353 1.61279H3.24745C3.08231 1.61279 2.94922 1.74637 2.94922 1.91103V4.39794C2.94922 4.56261 3.08231 4.69618 3.24745 4.69618C3.4126 4.69618 3.54569 4.56261 3.54569 4.39794V3.70141H3.99353C4.5696 3.70141 5.03784 3.23317 5.03784 2.6571C5.03784 2.08103 4.5696 1.61279 3.99353 1.61279ZM3.99353 3.10494H3.54569V2.20926H3.99353C4.24028 2.20926 4.44137 2.41035 4.44137 2.6571C4.44137 2.90385 4.24028 3.10494 3.99353 3.10494Z" fill="#1D1D1B"/>
<path d="M3.99353 5.5918H3.24745C3.08231 5.5918 2.94922 5.72537 2.94922 5.89003V8.37695C2.94922 8.54161 3.08231 8.67518 3.24745 8.67518C3.4126 8.67518 3.54569 8.54161 3.54569 8.37695V7.68042H3.8438L4.50063 8.55618C4.55989 8.63438 4.64926 8.67518 4.7396 8.67518C4.80178 8.67518 4.86492 8.65575 4.91835 8.61593C5.05047 8.51684 5.07767 8.32983 4.97858 8.19772L4.48557 7.54035C4.80943 7.36287 5.03784 7.03094 5.03784 6.63611C5.03784 6.06004 4.5696 5.5918 3.99353 5.5918ZM3.54569 6.18827H3.99353C4.24028 6.18827 4.44137 6.38936 4.44137 6.63611C4.44137 6.88286 4.24028 7.08395 3.99353 7.08395H3.54569V6.18827Z" fill="#1D1D1B"/>
<path d="M3.99353 13.5498H3.24745C3.08231 13.5498 2.94922 13.6834 2.94922 13.848V16.335C2.94922 16.4996 3.08231 16.6332 3.24745 16.6332H3.99353C4.5696 16.6332 5.03784 16.165 5.03784 15.5889V14.5941C5.03784 14.018 4.5696 13.5498 3.99353 13.5498ZM3.99353 16.0367H3.54569V14.1463H3.99353C4.24028 14.1463 4.44137 14.3474 4.44137 14.5941V15.5889C4.44137 15.8356 4.24028 16.0367 3.99353 16.0367Z" fill="#1D1D1B"/>
<path d="M4.7396 9.5708C4.57446 9.5708 4.44137 9.70438 4.44137 9.86904V11.2796L3.50295 9.71555C3.49609 9.70407 3.48115 9.70371 3.47307 9.69351C3.44861 9.66175 3.41837 9.6467 3.38321 9.62696C3.34855 9.60753 3.3208 9.58962 3.2817 9.58501C3.26877 9.58331 3.26087 9.5708 3.24745 9.5708C3.21892 9.5708 3.20058 9.59357 3.17447 9.60104C3.14746 9.60802 3.1188 9.59794 3.09396 9.61306C3.08213 9.62016 3.0817 9.6354 3.0712 9.64378C3.04029 9.66782 3.0256 9.69727 3.00611 9.73145C2.98619 9.76643 2.96804 9.79484 2.96349 9.83455C2.96179 9.84754 2.94922 9.85556 2.94922 9.86904V12.356C2.94922 12.5206 3.08231 12.6542 3.24745 12.6542C3.4126 12.6542 3.54569 12.5206 3.54569 12.356V10.9454L4.48411 12.5094C4.49279 12.524 4.50809 12.5305 4.51872 12.543C4.53019 12.5567 4.5404 12.566 4.55418 12.5774C4.60809 12.6224 4.67057 12.6542 4.7396 12.6542C4.79206 12.6542 4.84549 12.6406 4.89309 12.6119C4.90493 12.6048 4.90536 12.5896 4.91586 12.5812C4.94677 12.5572 4.96146 12.5277 4.98095 12.4935C5.00086 12.4586 5.01902 12.4301 5.02357 12.3904C5.02527 12.3774 5.03784 12.3694 5.03784 12.356V9.86904C5.03784 9.70438 4.90475 9.5708 4.7396 9.5708Z" fill="#1D1D1B"/>
<path d="M13.5682 8.06212V2.40833C13.5682 1.654 12.9542 1.04053 12.2004 1.04053H9.21609C8.46224 1.04053 7.84828 1.654 7.84828 2.40833V8.06212C7.27628 8.22575 6.85352 8.7476 6.85352 9.37169V10.3665C6.85352 10.9906 7.27628 11.5124 7.84828 11.676V15.3403C7.84828 16.0946 8.46224 16.7081 9.21609 16.7081H12.2004C12.9542 16.7081 13.5682 16.0946 13.5682 15.3403V11.676C14.1402 11.5124 14.563 10.9906 14.563 10.3665V9.37169C14.563 8.7476 14.1402 8.22575 13.5682 8.06212ZM9.21609 1.7866H12.2004C12.5433 1.7866 12.8221 2.06541 12.8221 2.40833V8.00389H11.0813V3.4031C11.0813 3.19715 10.9142 3.03006 10.7082 3.03006C10.5023 3.03006 10.3352 3.19715 10.3352 3.4031V8.00389H8.59436V2.40833C8.59436 2.06541 8.87316 1.7866 9.21609 1.7866ZM12.2004 15.962H9.21609C8.87316 15.962 8.59436 15.6832 8.59436 15.3403V11.7343H10.3352V14.3455C10.3352 14.5515 10.5023 14.7186 10.7082 14.7186C10.9142 14.7186 11.0813 14.5515 11.0813 14.3455V11.7343H12.8221V15.3403C12.8221 15.6832 12.5433 15.962 12.2004 15.962ZM13.1952 10.9882H8.22132C7.8784 10.9882 7.59959 10.7094 7.59959 10.3665V9.37169C7.59959 9.02877 7.8784 8.74997 8.22132 8.74997H13.1952C13.5381 8.74997 13.8169 9.02877 13.8169 9.37169V10.3665C13.8169 10.7094 13.5381 10.9882 13.1952 10.9882Z" fill="#1D1D1B"/>
</g>
<defs>
<clipPath id="clip0_158_4451">
<rect width="15.9163" height="15.9163" fill="white" transform="translate(0.760742 0.916016)"/>
</clipPath>
</defs>
</svg>
