<svg width="17" height="17" viewBox="0 0 17 17" fill="none" xmlns="http://www.w3.org/2000/svg">
<path d="M5.05001 12.3864C5.05001 12.7933 5.42043 13.1233 5.8773 13.1233H5.92334C6.38021 13.1233 6.75064 12.7933 6.75064 12.3864V9.76189H9.42502V12.3864C9.42502 12.7933 9.79587 13.1233 10.2523 13.1233H10.2984C10.7557 13.1233 11.1256 12.7933 11.1256 12.3864V9.76189H13.8007V12.3864C13.8007 12.7933 14.1707 13.1233 14.6279 13.1233H14.674C15.1305 13.1233 15.5013 12.7933 15.5013 12.3864V5.62263C15.5013 5.21569 15.1305 4.88574 14.674 4.88574H14.6279C14.1706 4.88574 13.8007 5.21569 13.8007 5.62263V8.24711H11.1256V5.62263C11.1256 5.21569 10.7557 4.88574 10.2984 4.88574H10.2523C9.79587 4.88574 9.42502 5.21569 9.42502 5.62263V8.24711H6.75069V5.62263C6.75069 5.21569 6.38026 4.88574 5.92339 4.88574H5.87735C5.42048 4.88574 5.05005 5.21569 5.05005 5.62263V8.24711H2.37544V5.62263C2.37544 5.21569 2.00501 4.88574 1.54814 4.88574H1.5021C1.04523 4.88574 0.674805 5.21569 0.674805 5.62263V8.98396V9.02139V9.025C0.674805 9.43195 1.23547 9.76185 1.92705 9.76185H5.05005L5.05001 12.3864Z" fill="#222222"/>
<path d="M5.68454 1.57654H5.69427V3.85231H6.42378V0.97998H5.79844L4.94531 1.33365L5.06931 1.83738L5.68454 1.57654Z" fill="#222222"/>
<path d="M5.61269 16.2834L5.91001 16.0625C6.37661 15.6916 6.76843 15.3069 6.76843 14.8251C6.76843 14.3038 6.36646 13.9238 5.63733 13.9238C5.20062 13.9238 4.82376 14.0566 4.58057 14.2199L4.79388 14.7018C4.96272 14.5866 5.2059 14.4629 5.48345 14.4629C5.8555 14.4629 6.01424 14.6485 6.01424 14.8828C6.00456 15.2185 5.66197 15.5412 4.95748 16.1025L4.54102 16.4382V16.8448H6.82781V16.2925H5.61269V16.2834Z" fill="#222222"/>
<path d="M9.97423 3.3708C9.66642 3.3708 9.35943 3.25602 9.22532 3.19413L9.07178 3.69785C9.26002 3.80401 9.61229 3.90113 10.0292 3.90113C10.8476 3.90113 11.3485 3.5298 11.3485 3.02175C11.3485 2.64609 11.0359 2.38563 10.6488 2.32375V2.31475C11.0463 2.19097 11.2394 1.95242 11.2394 1.64764C11.2394 1.25437 10.8573 0.931641 10.1682 0.931641C9.7513 0.931641 9.36429 1.03776 9.17038 1.14825L9.32469 1.63436C9.45874 1.56347 9.7359 1.46198 9.99925 1.46198C10.3168 1.46198 10.4751 1.59009 10.4751 1.76242C10.4751 2.00531 10.1527 2.08948 9.89989 2.09381H9.60743V2.57559H9.91442C10.2472 2.57559 10.5647 2.70369 10.5647 2.98648C10.5648 3.20313 10.3661 3.3708 9.97423 3.3708Z" fill="#222222"/>
<path d="M11.0887 13.9478H10.166L8.94531 15.6979V16.135H10.3737V16.8201H11.0887V16.135H11.4757V15.6313H11.0887V13.9478H11.0887ZM10.3736 14.9952V15.6313H9.6498V15.6227L10.0812 14.9952C10.1903 14.8139 10.2751 14.6461 10.3794 14.4605H10.3987C10.3842 14.6461 10.3736 14.8228 10.3736 14.9952Z" fill="#222222"/>
<path d="M16.1175 2.8695C16.1175 2.53378 15.9689 2.29489 15.7257 2.14917C15.4978 2.00344 15.1852 1.94156 14.8774 1.94156C14.7982 1.94156 14.7384 1.94156 14.6689 1.95017L14.7384 1.50834H15.989V0.956055H14.2124L13.9991 2.46294C14.1332 2.44532 14.2577 2.43632 14.4362 2.43632C15.0809 2.43632 15.3435 2.61766 15.3435 2.91377C15.3435 3.21854 15.0114 3.35132 14.6988 3.35132C14.4063 3.35132 14.1139 3.27182 13.9692 3.20993L13.8359 3.71365C14.0145 3.79748 14.3417 3.87703 14.7335 3.87703C15.6021 3.87699 16.1175 3.40417 16.1175 2.8695Z" fill="#222222"/>
<path d="M15.2153 14.8906C14.9124 14.8906 14.6894 14.9748 14.5303 15.1205H14.5157C14.5997 14.7848 14.8979 14.4797 15.5676 14.4311C15.6863 14.4225 15.776 14.4178 15.86 14.4225V13.9054C15.7857 13.9008 15.696 13.9008 15.5571 13.9098C15.0514 13.9318 14.6345 14.0731 14.3121 14.334C13.9647 14.6211 13.7417 15.072 13.7417 15.611C13.7417 16.296 14.1634 16.866 15.0214 16.866C15.7211 16.866 16.2123 16.3975 16.2123 15.8275C16.2123 15.231 15.7559 14.8906 15.2153 14.8906ZM15.0117 16.3712C14.6692 16.3712 14.506 16.097 14.4906 15.7923C14.4906 15.7128 14.5003 15.6595 14.5205 15.6243C14.5949 15.4785 14.7637 15.368 14.9673 15.368C15.2896 15.368 15.448 15.5976 15.448 15.8628C15.4481 16.1546 15.28 16.3712 15.0117 16.3712Z" fill="#222222"/>
<path d="M1.01111 2.74524H1.23933C1.54676 2.74991 1.69097 2.85136 1.78027 3.22274C1.8792 3.5894 1.95879 3.83262 2.01335 3.91645H2.78733C2.72271 3.80168 2.61848 3.41273 2.51426 3.07701C2.42986 2.80285 2.30096 2.60385 2.06792 2.52002V2.50673C2.35552 2.4139 2.65809 2.1534 2.65809 1.77345C2.65809 1.49929 2.549 1.29168 2.35066 1.15024C2.11234 0.982234 1.76531 0.916016 1.26926 0.916016C0.867336 0.916016 0.504964 0.94263 0.262207 0.977904V3.9165H1.01116V2.74524H1.01111ZM1.01111 1.43731C1.06563 1.42865 1.16985 1.41537 1.35328 1.41537C1.70069 1.4197 1.90913 1.5568 1.90913 1.83059C1.90913 2.09147 1.68572 2.25948 1.30886 2.25948H1.01116V1.43731H1.01111Z" fill="#222222"/>
</svg>
