<svg width="22" height="22" viewBox="0 0 22 22" fill="none" xmlns="http://www.w3.org/2000/svg">
<path fill-rule="evenodd" clip-rule="evenodd" d="M15.2408 14.2179C14.9929 14.077 13.7725 13.3962 13.5452 13.302C13.3178 13.2083 13.1521 13.1612 12.9868 13.4428C12.8215 13.7249 12.3458 14.3587 12.2011 14.5466C12.0564 14.7341 11.9116 14.7579 11.6633 14.617C11.4154 14.4762 10.6155 14.179 9.66772 13.2201C8.92996 12.4739 8.43208 11.5521 8.28735 11.2704C8.14222 10.9883 8.27203 10.836 8.3962 10.6957C8.50787 10.5695 8.64413 10.3669 8.7683 10.2027C8.89247 10.0381 8.93359 9.92108 9.01664 9.73315C9.09928 9.54568 9.05776 9.38107 8.99568 9.24023C8.93399 9.0994 8.43772 7.71393 8.23091 7.1506C8.02934 6.6019 7.82454 6.67597 7.67255 6.66729C7.52782 6.65906 7.36213 6.65723 7.19684 6.65723C7.03155 6.65723 6.76266 6.72764 6.53488 7.00931C6.3075 7.29098 5.6665 7.97228 5.6665 9.35729C5.6665 10.7428 6.55584 12.0811 6.67961 12.2691C6.80378 12.4565 8.42966 15.2997 10.9191 16.5187C11.3811 16.7446 11.8533 16.9426 12.3337 17.1118C12.928 17.3263 13.469 17.2956 13.8967 17.2234C14.3736 17.1424 15.365 16.5421 15.5718 15.885C15.7786 15.2275 15.7786 14.6641 15.7165 14.5466C15.6544 14.4291 15.4891 14.3592 15.2408 14.2179Z" fill="#C20E0E"/>
<path fill-rule="evenodd" clip-rule="evenodd" d="M18.639 3.18602C16.5885 1.13241 13.8606 0.00132291 10.9546 0C4.96666 0 0.0934859 4.87274 0.0908401 10.8625C0.0884635 12.7688 0.588727 14.6421 1.5412 16.2935L0 21.9229L5.75909 20.4121C7.35179 21.2797 9.13652 21.7344 10.9502 21.7346H10.9546C16.9417 21.7346 21.8157 16.861 21.8179 10.8713C21.8188 7.9688 20.6899 5.23918 18.639 3.18602ZM10.9546 19.8997H10.9506C9.33372 19.8999 7.7465 19.4652 6.35528 18.6412L6.02543 18.4454L2.60791 19.3419L3.52072 16.0104L3.30552 15.6686C2.40124 14.2292 1.92273 12.5632 1.92528 10.8633C1.92705 5.88477 5.97781 1.83488 10.9581 1.83488C12.1444 1.8321 13.3195 2.06472 14.4152 2.51927C15.511 2.97381 16.5057 3.64125 17.3416 4.48292C18.1824 5.32012 18.8487 6.31572 19.3022 7.41211C19.7557 8.5085 19.9872 9.68393 19.9835 10.8704C19.9817 15.849 15.931 19.8997 10.9546 19.8997Z" fill="#C20E0E"/>
</svg>
